<?xml version="1.0" encoding="UTF-8"?>
<svg version="1.1" xmlns="http://www.w3.org/2000/svg" width="590" height="404">
<path d="M0 0 C194.7 0 389.4 0 590 0 C590 133.32 590 266.64 590 404 C395.3 404 200.6 404 0 404 C0 270.68 0 137.36 0 0 Z " fill="#000000" transform="translate(0,0)"/>
<path d="M0 0 C2.44707702 3.40842871 2.13697883 6.41381827 1.75 10.4375 C0.99923203 14.31513669 0.00101386 18.11788898 -1 21.9375 C-3.21683445 30.76668455 -5.13187793 39.58144054 -6.625 48.5625 C-6.79225586 49.55056641 -6.95951172 50.53863281 -7.13183594 51.55664062 C-7.94219787 56.60005447 -8.31763596 61.3377486 -8.25 66.4375 C-8.58 67.0975 -8.91 67.7575 -9.25 68.4375 C-9.35341323 69.95710001 -9.43332343 71.4783454 -9.5 73 C-10.0169512 78.30839443 -11.23380643 83.69416883 -15.25 87.4375 C-20.13512878 88.75233797 -22.05318446 89.06480614 -26.56640625 86.69921875 C-27.66447436 85.86176595 -28.74597537 85.00227189 -29.8125 84.125 C-31.0361173 83.18925373 -32.26143376 82.25572593 -33.48828125 81.32421875 C-34.11041504 80.84259277 -34.73254883 80.3609668 -35.37353516 79.86474609 C-38.33995023 77.60847982 -41.40317786 75.50975677 -44.5 73.4375 C-45.41495239 72.82334229 -45.41495239 72.82334229 -46.34838867 72.19677734 C-51.29556177 68.93777843 -56.41998154 66.0737252 -61.625 63.25 C-78.85562138 53.88883766 -78.85562138 53.88883766 -83.25 46.4375 C-83.87286635 42.70030191 -83.70439841 41.11058469 -81.57543945 37.95703125 C-79.05127347 35.22218684 -76.84038226 33.82825421 -73.54296875 32.125 C-72.41020508 31.53090332 -71.27744141 30.93680664 -70.11035156 30.32470703 C-69.51162231 30.01712463 -68.91289307 29.70954224 -68.29602051 29.39263916 C-65.12156012 27.7612063 -61.96669831 26.09249314 -58.80859375 24.4296875 C-58.16947052 24.09452118 -57.53034729 23.75935486 -56.87185669 23.41403198 C-50.84759961 20.24763058 -44.91374888 16.93058207 -39 13.5625 C-37.59959473 12.76827637 -37.59959473 12.76827637 -36.17089844 11.95800781 C-31.92831541 9.54768939 -27.69719496 7.11932668 -23.48046875 4.6640625 C-22.74924805 4.24237793 -22.01802734 3.82069336 -21.26464844 3.38623047 C-19.93647761 2.6197379 -18.61244662 1.84599718 -17.29394531 1.06298828 C-11.34599988 -2.35814893 -5.87501014 -4.07986815 0 0 Z " fill="#FAFAFA" transform="translate(239.25,151.5625)"/>
<path d="M0 0 C0.99 0.66 1.98 1.32 3 2 C4.98 2.33 6.96 2.66 9 3 C11.97 15.87 14.94 28.74 18 42 C20.31 42.33 22.62 42.66 25 43 C23.68 43.99 22.36 44.98 21 46 C22.58272601 47.58272601 24.38034003 47.34735747 26.5625 47.5625 C27.38878906 47.64628906 28.21507812 47.73007813 29.06640625 47.81640625 C29.70449219 47.87699219 30.34257812 47.93757813 31 48 C30.2890625 49.921875 30.2890625 49.921875 29 52 C26.8359375 52.828125 26.8359375 52.828125 24.375 53.25 C23.55773437 53.39953125 22.74046875 53.5490625 21.8984375 53.703125 C21.27195312 53.80109375 20.64546875 53.8990625 20 54 C20.32524658 54.66298096 20.65049316 55.32596191 20.9855957 56.0090332 C22.22767282 59.67129234 22.26901979 63.03751146 22.23046875 66.85546875 C22.23001053 67.59831619 22.22955231 68.34116364 22.2290802 69.10652161 C22.22607089 70.66893115 22.21822433 72.23133805 22.20581055 73.79370117 C22.1874805 76.19004885 22.18530157 78.58601119 22.18554688 80.98242188 C22.18063385 82.50260752 22.17480647 84.02279054 22.16796875 85.54296875 C22.16685593 86.2606694 22.1657431 86.97837006 22.16459656 87.71781921 C22.11610577 92.76778846 22.11610577 92.76778846 21 95 C21.24797867 96.63608919 21.57118082 98.26128023 21.9375 99.875 C22.66879996 103.11984086 23 105.62438243 23 109 C22 109 21 109 20 109 C19.01 109.495 19.01 109.495 18 110 C17.34 109.67 16.68 109.34 16 109 C16 109.99 16 110.98 16 112 C14.515 111.505 14.515 111.505 13 111 C12.20043945 109.32592773 12.20043945 109.32592773 11.61328125 107.18359375 C11.39736328 106.41982422 11.18144531 105.65605469 10.95898438 104.86914062 C10.74564453 104.06669922 10.53230469 103.26425781 10.3125 102.4375 C10.08755859 101.63119141 9.86261719 100.82488281 9.63085938 99.99414062 C9.0760459 97.99917301 8.53657222 95.99995101 8 94 C7.34 95.32 6.68 96.64 6 98 C5.63495397 96.41913952 5.28339494 94.83516093 4.9375 93.25 C4.74027344 92.36828125 4.54304688 91.4865625 4.33984375 90.578125 C4.00174128 88.01320972 4.18841365 86.42908361 5 84 C5.33 84.33 5.66 84.66 6 85 C5.67 80.38 5.34 75.76 5 71 C4.34 71 3.68 71 3 71 C2.505 72.485 2.505 72.485 2 74 C1.505 69.545 1.505 69.545 1 65 C1.33 65 1.66 65 2 65 C2.33 63.02 2.66 61.04 3 59 C-5.25 60.65 -13.5 62.3 -22 64 C-22 64.66 -22 65.32 -22 66 C-20.88625 65.505 -20.88625 65.505 -19.75 65 C-14.4878448 63.59675861 -9.4142163 63.84230438 -4 64 C-4.495 65.485 -4.495 65.485 -5 67 C-7.41806939 67.78415814 -9.71397893 68.40059353 -12.1875 68.9375 C-17.52796929 70.09937771 -21.71676117 71.37377716 -26 75 C-27.4496912 77.81577742 -27.4496912 77.81577742 -28.1875 80.9375 C-29.33992648 85.0999171 -30.69508506 88.34740256 -33 92 C-33.69579454 94.19130534 -33.69579454 94.19130534 -34 96 C-36.64 95.67 -39.28 95.34 -42 95 C-42.79953138 91.71303767 -43.09658936 90.28976808 -42 87 C-42.99 87.495 -42.99 87.495 -44 88 C-44.46523063 89.89533342 -44.46523063 89.89533342 -44.625 92.0625 C-44.74875 93.361875 -44.8725 94.66125 -45 96 C-45.99 95.34 -46.98 94.68 -48 94 C-48.03187955 92.02346771 -48.05632306 90.04169056 -47.91015625 88.0703125 C-47.82976041 85.94140972 -47.82976041 85.94140972 -49.12841797 84.22680664 C-50.39473313 80.99149556 -49.37760443 79.45275936 -48.03515625 76.30078125 C-47.56779053 75.18106934 -47.1004248 74.06135742 -46.61889648 72.90771484 C-46.10528564 71.72129395 -45.5916748 70.53487305 -45.0625 69.3125 C-44.55340088 68.1054541 -44.04430176 66.8984082 -43.51977539 65.65478516 C-42.49685387 63.22961479 -41.46851025 60.8067238 -40.43457031 58.38623047 C-39.18085154 55.4268909 -37.96355719 52.45799397 -36.7734375 49.47265625 C-36.45753662 48.68270264 -36.14163574 47.89274902 -35.81616211 47.07885742 C-35.24314434 45.64161614 -34.67348176 44.20303126 -34.10766602 42.76293945 C-32.22391313 38.11195656 -32.22391313 38.11195656 -30 37 C-29.01 37.99 -28.02 38.98 -27 40 C-27 38.68 -27 37.36 -27 36 C-27.66 36 -28.32 36 -29 36 C-28.74347067 29.50980796 -28.26267356 25.03770511 -24 20 C-23.34 19.67 -22.68 19.34 -22 19 C-22.66 18.67 -23.32 18.34 -24 18 C-23.34309381 14.21760329 -22.279869 10.78158474 -20.9375 7.1875 C-20.57527344 6.21167969 -20.21304687 5.23585937 -19.83984375 4.23046875 C-19.56269531 3.49441406 -19.28554688 2.75835937 -19 2 C-17.948125 2.04125 -16.89625 2.0825 -15.8125 2.125 C-12.14176386 2.22140897 -12.14176386 2.22140897 -9.5 1 C-6.19555476 -0.3217781 -3.52711311 -0.26126764 0 0 Z " fill="#F9F9F9" transform="translate(358,146)"/>
<path d="M0 0 C5.7425809 2.86634847 9.04403678 5.51806286 12.26953125 11.1328125 C13.99239339 16.30139891 14.90686231 21.84283981 12.38183594 26.91650391 C9.96163648 30.86963702 7.16518028 34.51899655 4.26953125 38.1328125 C4.82382812 37.63910156 5.378125 37.14539063 5.94921875 36.63671875 C6.67367187 35.99605469 7.398125 35.35539062 8.14453125 34.6953125 C8.86382812 34.05722656 9.583125 33.41914063 10.32421875 32.76171875 C12.26953125 31.1328125 12.26953125 31.1328125 14.26953125 30.1328125 C14.10426244 36.57829626 10.46725091 40.60127815 6.26953125 45.1328125 C2.32488085 48.73667237 -1.31144789 50.73629878 -6.73046875 51.1328125 C-5.42048076 56.11372731 -3.19784485 59.32742635 0.20703125 63.0703125 C4.94942802 68.44771084 9.23513241 74.0250538 13.30053711 79.93139648 C16.07119318 83.85199505 18.98976939 86.77734612 22.82519531 89.67797852 C24.55829711 91.42367723 24.87844612 92.7372558 25.26953125 95.1328125 C23.78453125 94.6378125 23.78453125 94.6378125 22.26953125 94.1328125 C22.76453125 94.7309375 23.25953125 95.3290625 23.76953125 95.9453125 C25.26953125 98.1328125 25.26953125 98.1328125 25.26953125 101.1328125 C21.28945157 104.22843003 21.28945157 104.22843003 18.26953125 103.9453125 C17.27953125 103.543125 17.27953125 103.543125 16.26953125 103.1328125 C15.521875 102.88917969 14.77421875 102.64554687 14.00390625 102.39453125 C10.63297528 100.83908739 8.18372984 98.65701823 5.51953125 96.1328125 C4.99657471 95.64296875 4.47361816 95.153125 3.93481445 94.6484375 C-7.9182468 83.4125535 -16.62408291 70.79918328 -23.73046875 56.1328125 C-23.73046875 55.4728125 -23.73046875 54.8128125 -23.73046875 54.1328125 C-24.72046875 54.6278125 -24.72046875 54.6278125 -25.73046875 55.1328125 C-27.63283277 61.51132715 -28.07599787 67.83687873 -28.30102539 74.45922852 C-28.47244954 78.46352083 -29.16459062 81.47067817 -30.73046875 85.1328125 C-30.73046875 86.4528125 -30.73046875 87.7728125 -30.73046875 89.1328125 C-31.49359375 88.9678125 -32.25671875 88.8028125 -33.04296875 88.6328125 C-35.76643111 88.04135854 -35.76643111 88.04135854 -38.73046875 88.1328125 C-41.73854287 87.84170855 -42.66898551 87.19406928 -44.8515625 85.01953125 C-51.13273957 75.36924049 -44.18494422 56.59765056 -41.99072266 46.11132812 C-40.81465541 40.66627532 -39.566355 35.39858251 -37.73046875 30.1328125 C-37.40046875 30.1328125 -37.07046875 30.1328125 -36.73046875 30.1328125 C-36.73046875 32.4428125 -36.73046875 34.7528125 -36.73046875 37.1328125 C-36.03451056 34.34300584 -35.34840201 31.55140646 -34.66796875 28.7578125 C-34.46880859 27.96375 -34.26964844 27.1696875 -34.06445312 26.3515625 C-32.79382184 22.17850253 -32.79382184 22.17850253 -33.73046875 18.1328125 C-36.04046875 18.1328125 -38.35046875 18.1328125 -40.73046875 18.1328125 C-40.40046875 16.8128125 -40.07046875 15.4928125 -39.73046875 14.1328125 C-40.06046875 14.1328125 -40.39046875 14.1328125 -40.73046875 14.1328125 C-42.06614896 13.80901124 -43.39969886 13.47623699 -44.73046875 13.1328125 C-44.07046875 12.4728125 -43.41046875 11.8128125 -42.73046875 11.1328125 C-43.39046875 9.8128125 -44.05046875 8.4928125 -44.73046875 7.1328125 C-29.67334625 -1.60403636 -17.11459694 -7.33849284 0 0 Z " fill="#FAFAFA" transform="translate(442.73046875,152.8671875)"/>
<path d="M0 0 C1.60332791 -0.08121924 3.20784026 -0.13929134 4.8125 -0.1875 C6.15248047 -0.23970703 6.15248047 -0.23970703 7.51953125 -0.29296875 C10 0 10 0 11.82421875 1.38671875 C13 3 13 3 13 5 C13.71027344 5.26039063 14.42054687 5.52078125 15.15234375 5.7890625 C18.17830593 7.07582282 20.78186124 8.61997634 23.5625 10.375 C28.48903406 13.46181904 33.45309355 16.47583326 38.4519043 19.44433594 C41.04472608 20.98940845 43.62666925 22.55141345 46.20703125 24.1171875 C49.09296206 25.86779165 51.99405745 27.56471999 54.94921875 29.1953125 C62.57381427 33.65276834 62.57381427 33.65276834 63.82421875 37.60546875 C63.97689727 41.25395893 63.93988233 43.82908514 61.6015625 46.7421875 C60 48 60 48 57.4375 48.8125 C52.51679679 50.51237929 48.41494247 53.27160009 44 56 C42.72142871 56.76532538 41.44138963 57.52820214 40.16015625 58.2890625 C39.49363037 58.68536865 38.82710449 59.0816748 38.14038086 59.48999023 C36.82020964 60.27441662 35.49943069 61.05782134 34.17797852 61.84008789 C31.61613624 63.36965149 29.12565062 64.90521856 26.7421875 66.703125 C24.35491395 68.48019859 21.8260044 69.11687362 19 70 C16.85360137 70.91988513 15.36089658 71.59926419 13.796875 73.3359375 C11.27698679 75.6695731 8.46326313 77.07488658 5.4375 78.6875 C3.70306641 79.62142578 3.70306641 79.62142578 1.93359375 80.57421875 C-1 82 -1 82 -3 82 C-3 82.66 -3 83.32 -3 84 C-4.375 85.5 -4.375 85.5 -6 87 C-6.99 87.99 -6.99 87.99 -8 89 C-9.9375 88.9375 -9.9375 88.9375 -12 88 C-14.48794159 84.99811742 -15.21181685 82.78428392 -14.99609375 78.98046875 C-14.83003083 77.3805943 -14.64242053 75.78286288 -14.4375 74.1875 C-14.33888672 73.32962891 -14.24027344 72.47175781 -14.13867188 71.58789062 C-13.26642079 64.36730325 -12.16029938 57.17925025 -11 50 C-10.8342749 48.96770264 -10.6685498 47.93540527 -10.49780273 46.87182617 C-10.25139038 45.41933472 -10.25139038 45.41933472 -10 43.9375 C-9.855625 43.08027344 -9.71125 42.22304687 -9.5625 41.33984375 C-9 39 -9 39 -7.9375 36.94140625 C-6.71009973 34.75898383 -6.71009973 34.75898383 -7 31 C-6.34 31 -5.68 31 -5 31 C-4.896875 29.7625 -4.79375 28.525 -4.6875 27.25 C-4.26850391 23.38794912 -3.4871537 19.75599944 -2.5 16 C-1.12013089 10.74303523 0 5.46969247 0 0 Z " fill="#F8F8F8" transform="translate(87,157)"/>
<path d="M0 0 C7.875 0.875 7.875 0.875 9 2 C9.04080783 3.99958364 9.04254356 6.00045254 9 8 C10.32 8.33 11.64 8.66 13 9 C13 8.01 13 7.02 13 6 C13.99 6 14.98 6 16 6 C15.49279908 16.82873964 13.12424249 27.39945425 11 38 C12.14662109 37.89171875 12.14662109 37.89171875 13.31640625 37.78125 C21.912378 37.03647266 30.38008375 36.89269814 39 37 C39 34.69 39 32.38 39 30 C39.66 30 40.32 30 41 30 C40.505 29.01 40.505 29.01 40 28 C39.84651357 24.46981203 39.95854754 21.38472048 41 18 C41.66 18 42.32 18 43 18 C43 17.34 43 16.68 43 16 C42.34 15.67 41.68 15.34 41 15 C41.33 14.67 41.66 14.34 42 14 C42 12.00127494 41.99735137 10.00242666 41.96875 8.00390625 C42.0020766 5.86683833 42.37257056 4.03914568 43 2 C43 1.34 43 0.68 43 0 C45.97 0 48.94 0 52 0 C52.71614583 2.05078125 53.43229167 4.1015625 54.1484375 6.15234375 C54.85271413 8.18682116 54.85271413 8.18682116 57 9 C57 8.01 57 7.02 57 6 C57.99 6 58.98 6 60 6 C57.32132598 36.25054286 50.03357994 66.28150751 44 96 C43.01 96 42.02 96 41 96 C41 93.03 41 90.06 41 87 C40.01 90.3 39.02 93.6 38 97 C32.55084306 97 31.20935737 96.13254502 27 93 C27.19521633 84.07328979 28.74259472 75.54482119 30.5 66.8125 C30.72582764 65.6891626 30.95165527 64.5658252 31.18432617 63.40844727 C32.857643 55.284714 32.857643 55.284714 34 53 C33.04480469 53.24363281 33.04480469 53.24363281 32.0703125 53.4921875 C27.98662879 54.16760593 24.00632379 54.14489402 19.875 54.125 C19.06417969 54.12886719 18.25335938 54.13273437 17.41796875 54.13671875 C16.63808594 54.13542969 15.85820312 54.13414062 15.0546875 54.1328125 C13.99483643 54.13112061 13.99483643 54.13112061 12.91357422 54.12939453 C11 54 11 54 8 53 C7.97421875 53.79019531 7.9484375 54.58039063 7.921875 55.39453125 C7.35298985 66.70758827 5.59286347 78.22140959 2 89 C0.35 89 -1.3 89 -3 89 C-3.66 86.69 -4.32 84.38 -5 82 C-5.33 83.98 -5.66 85.96 -6 88 C-6.99 87.34 -7.98 86.68 -9 86 C-8.67 83.69 -8.34 81.38 -8 79 C-9.98 79.495 -9.98 79.495 -12 80 C-16.10647505 71.78704991 -11.08147242 55.69004799 -9.625 47.1875 C-9.41601074 45.9605542 -9.20702148 44.7336084 -8.99169922 43.46948242 C-7.84242695 36.98104709 -6.45067208 30.66571593 -4.64257812 24.32983398 C-3.87668123 21.55287574 -3.35965008 18.78598839 -2.9375 15.9375 C-2.10574148 10.59048092 -1.10168513 5.29746467 0 0 Z " fill="#F6F6F6" transform="translate(250,150)"/>
<path d="M0 0 C0.66 0.33 1.32 0.66 2 1 C3.010625 1 4.02125 1 5.0625 1 C6.031875 1 7.00125 1 8 1 C9 2 9 2 9.0625 5.0625 C9.041875 6.031875 9.02125 7.00125 9 8 C9.99 8 10.98 8 12 8 C12.33 7.34 12.66 6.68 13 6 C13.99 6 14.98 6 16 6 C15.39971033 13.30168704 14.29650901 20.42921447 12.9375 27.625 C12.298125 31.04875 11.65875 34.4725 11 38 C19.91 37.34 28.82 36.68 38 36 C38 34.02 38 32.04 38 30 C38.66 30 39.32 30 40 30 C39.979375 28.7625 39.95875 27.525 39.9375 26.25 C39.93233319 23.3359175 40.06984442 20.79046673 41 18 C41.66 18 42.32 18 43 18 C43 17.34 43 16.68 43 16 C42.34 15.67 41.68 15.34 41 15 C41.14230808 13.58297487 41.28900746 12.1663904 41.4375 10.75 C41.51871094 9.96109375 41.59992187 9.1721875 41.68359375 8.359375 C41.97646296 6.1755108 42.45789357 4.13198159 43 2 C43 1.34 43 0.68 43 0 C43.99 0 44.98 0 46 0 C45.46589137 7.35251669 44.86859084 14.67902003 44 22 C44.66 17.38 45.32 12.76 46 8 C46.33 8 46.66 8 47 8 C47.07000337 17.1285345 47.12306365 26.25697433 47.15543652 35.38572025 C47.17098636 39.62614087 47.19202511 43.86637571 47.22631836 48.10668945 C47.25929836 52.21105673 47.27693293 56.31524714 47.28463173 60.41973686 C47.29010686 61.97316707 47.30079456 63.52658937 47.31719017 65.0799427 C47.54816109 87.90367781 47.54816109 87.90367781 43 97 C42.34 97 41.68 97 41 97 C41.33 93.37 41.66 89.74 42 86 C41.34 86 40.68 86 40 86 C39.814375 87.60875 39.814375 87.60875 39.625 89.25 C39.10356064 92.37863615 38.59911746 94.33480424 37 97 C33.44219804 96.39009109 30.3171411 95.4216319 27 94 C26.63881401 86.54475073 28.01215942 79.61197145 29.4375 72.3125 C29.66759766 71.10271484 29.89769531 69.89292969 30.13476562 68.64648438 C31.06675384 63.75962441 32.02001046 58.87745798 33 54 C32.34926514 54.00523682 31.69853027 54.01047363 31.02807617 54.01586914 C28.08122726 54.03664938 25.13439377 54.0496635 22.1875 54.0625 C20.65125977 54.07506836 20.65125977 54.07506836 19.08398438 54.08789062 C17.60961914 54.09272461 17.60961914 54.09272461 16.10546875 54.09765625 C15.19949951 54.10289307 14.29353027 54.10812988 13.36010742 54.11352539 C11 54 11 54 8 53 C7.93631226 54.07749512 7.93631226 54.07749512 7.87133789 55.17675781 C7.33421637 62.87405068 6.09655034 70.22153628 4.4375 77.75 C4.20353516 78.84054688 3.96957031 79.93109375 3.72851562 81.0546875 C3.15900733 83.70464448 2.58277798 86.3529357 2 89 C0.33388095 89.042721 -1.33382885 89.04063832 -3 89 C-4.96822886 87.03177114 -4.66248381 83.65191291 -5 81 C-5.33 83.31 -5.66 85.62 -6 88 C-6.99 87.34 -7.98 86.68 -9 86 C-8.67 83.69 -8.34 81.38 -8 79 C-10.475 79.495 -10.475 79.495 -13 80 C-13.96789189 76.1521682 -13.95071078 73.11424371 -13.3984375 69.1953125 C-13.24052734 68.06609375 -13.08261719 66.936875 -12.91992188 65.7734375 C-12.74009766 64.56945312 -12.56027344 63.36546875 -12.375 62.125 C-12.19259766 60.8771875 -12.01019531 59.629375 -11.82226562 58.34375 C-10.21140486 47.69145861 -8.0211384 37.23060136 -5.61132812 26.73583984 C-4.39112229 21.27512636 -3.3318597 15.78159438 -2.25585938 10.29101562 C-2.10439453 9.52080078 -1.95292969 8.75058594 -1.796875 7.95703125 C-1.66635742 7.28647705 -1.53583984 6.61592285 -1.40136719 5.92504883 C-0.98641695 3.9348526 -0.5057334 1.96890461 0 0 Z " fill="#F7F7F7" transform="translate(543,150)"/>
<path d="M0 0 C0.495 1.485 0.495 1.485 1 3 C0.01 3 -0.98 3 -2 3 C-1.01 4.98 -1.01 4.98 0 7 C-2.36048139 9.94014391 -3.70593608 10.92891499 -7.42578125 11.828125 C-8.70839844 11.96734375 -9.99101563 12.1065625 -11.3125 12.25 C-12.58738281 12.39953125 -13.86226562 12.5490625 -15.17578125 12.703125 C-18.80328075 12.98472864 -22.3634726 13.05645321 -26 13 C-26.10828125 14.02867187 -26.2165625 15.05734375 -26.328125 16.1171875 C-27.12933555 22.5128647 -28.49039375 28.8072997 -29.75 35.125 C-31.91531412 46.14558327 -33.97930275 57.17973869 -35.875 68.25 C-36.08995117 69.46703613 -36.30490234 70.68407227 -36.52636719 71.93798828 C-38.06880128 81.11483378 -38.90933998 89.99880134 -37 99.1875 C-36.814375 100.10917969 -36.62875 101.03085938 -36.4375 101.98046875 C-36.293125 102.64691406 -36.14875 103.31335938 -36 104 C-39.84375 102.3515625 -39.84375 102.3515625 -41.25 99.1875 C-42.6065292 93.59479191 -42.15453829 87.70933124 -42 82 C-42.99 82.495 -42.99 82.495 -44 83 C-43.67 90.26 -43.34 97.52 -43 105 C-47 104 -47 104 -50 102 C-51.485 101.505 -51.485 101.505 -53 101 C-54.203125 98.48828125 -54.203125 98.48828125 -55.25 95.3125 C-55.60578125 94.27738281 -55.9615625 93.24226563 -56.328125 92.17578125 C-57.05963954 88.71809916 -56.75377464 86.4231931 -56 83 C-55.96377667 81.33372702 -55.95100158 79.66594626 -56 78 C-55.01 78 -54.02 78 -53 78 C-52.67 76.68 -52.34 75.36 -52 74 C-51.67 75.65 -51.34 77.3 -51 79 C-50.67 75.37 -50.34 71.74 -50 68 C-50.99 68.495 -50.99 68.495 -52 69 C-52 68.34 -52 67.68 -52 67 C-52.66 67 -53.32 67 -54 67 C-54.25 61.375 -54.25 61.375 -52 58 C-51.77279956 55.75675518 -51.64093962 53.50335629 -51.5625 51.25 C-51.24299178 44.46045033 -50.17321394 38.06985557 -48.71875 31.4375 C-47.99366355 27.96969525 -47.46576481 24.51115008 -47 21 C-47.62567871 21.01047363 -48.25135742 21.02094727 -48.89599609 21.03173828 C-51.7222901 21.07323191 -54.54852011 21.09930473 -57.375 21.125 C-58.35984375 21.14175781 -59.3446875 21.15851563 -60.359375 21.17578125 C-61.30039062 21.18222656 -62.24140625 21.18867188 -63.2109375 21.1953125 C-64.51490479 21.21102295 -64.51490479 21.21102295 -65.84521484 21.22705078 C-68 21 -68 21 -70 19 C-67.54724859 17.7736243 -65.9494219 17.88584686 -63.2109375 17.90234375 C-62.26992188 17.90556641 -61.32890625 17.90878906 -60.359375 17.91210938 C-58.88210938 17.92467773 -58.88210938 17.92467773 -57.375 17.9375 C-56.38242187 17.94201172 -55.38984375 17.94652344 -54.3671875 17.95117188 C-51.9113984 17.96297855 -49.45572896 17.979446 -47 18 C-47 17.01 -47 16.02 -47 15 C-48.19496094 15.144375 -49.38992188 15.28875 -50.62109375 15.4375 C-52.22653089 15.62527043 -53.83200148 15.8127551 -55.4375 16 C-56.22060547 16.09539062 -57.00371094 16.19078125 -57.81054688 16.2890625 C-72.5234375 17.984375 -72.5234375 17.984375 -77 15 C-77.63914806 11.96548623 -77.51504903 9.05110566 -77 6 C-74.49071241 3.23113094 -71.7063551 2.16450049 -67.9650116 1.80381775 C-67.18531509 1.77050858 -66.40561859 1.7371994 -65.60229492 1.70288086 C-64.71253464 1.66291489 -63.82277435 1.62294891 -62.90605164 1.58177185 C-61.94060928 1.54318558 -60.97516693 1.5045993 -59.98046875 1.46484375 C-58.97148026 1.42186661 -57.96249176 1.37888947 -56.92292786 1.33460999 C-54.77349662 1.24427084 -52.62397098 1.15615519 -50.47436523 1.07006836 C-47.26579797 0.94065797 -44.05773628 0.80196036 -40.84960938 0.66210938 C-27.22535015 0.08964159 -13.63549361 -0.11444151 0 0 Z " fill="#FBFBFB" transform="translate(536,149)"/>
<path d="M0 0 C2.6068127 0.21881019 5.20220189 0.41012853 7.8125 0.5625 C8.85180664 0.62727539 8.85180664 0.62727539 9.91210938 0.69335938 C11.60788686 0.79861453 13.30392052 0.89972863 15 1 C15 1.99 15 2.98 15 4 C15.56589844 4.23074219 16.13179687 4.46148437 16.71484375 4.69921875 C22.75721511 7.38589705 22.75721511 7.38589705 24.0625 10.6875 C24 13 24 13 23 14 C23.99 14.66 24.98 15.32 26 16 C24.35 16.33 22.7 16.66 21 17 C21.66 17.33 22.32 17.66 23 18 C23 18.66 23 19.32 23 20 C22.12859375 20.08636719 21.2571875 20.17273438 20.359375 20.26171875 C7.50056287 21.77861325 -2.22331049 25.43305238 -12 34 C-8.90335869 36.06442754 -5.81175409 37.49574975 -2.4375 39.0625 C6.82442965 43.56043245 16.27890765 50.57732394 21 60 C21.65065232 66.89691464 17.055645 72.74352156 13 78 C10.1824602 80.92985075 7.20829097 83.50857991 4 86 C3.16082031 86.66515625 3.16082031 86.66515625 2.3046875 87.34375 C-1.01078924 89.77394237 -3.9350278 90.61285979 -8 91 C-8 91.99 -8 92.98 -8 94 C-12.455 94.99 -12.455 94.99 -17 96 C-17.27876892 84.8299634 -17.49161902 73.66076165 -17.62174606 62.48794746 C-17.68422253 57.29897833 -17.76886292 52.11239854 -17.90527344 46.92480469 C-18.0362407 41.91250258 -18.10752497 36.90248875 -18.13852692 31.88860703 C-18.16059988 29.98182019 -18.20370965 28.07515057 -18.26876068 26.16934586 C-18.77936278 10.58173773 -18.77936278 10.58173773 -14.42443848 5.50384521 C-10.01712928 1.30186532 -6.20762168 -1.98540194 0 0 Z " fill="#FAFAFA" transform="translate(17,150)"/>
<path d="M0 0 C0.66 0.99 1.32 1.98 2 3 C2.99 3.33 3.98 3.66 5 4 C7.78170226 9.56340451 4.60926099 17.75641818 3.125 23.375 C-1.56573197 41.29479449 -3.64280786 60.05341014 -2.6875 78.5625 C-2.57650137 85.06516962 -5.55361791 89.67290525 -9 95 C-9.495 95.99 -9.495 95.99 -10 97 C-12.97 96.67 -15.94 96.34 -19 96 C-20 92 -20 92 -19.875 88.9375 C-19.65861623 85.98955561 -19.65861623 85.98955561 -21.51464844 84.56860352 C-23 83 -23 83 -23.17285156 81.10913086 C-23.0797168 80.40151611 -22.98658203 79.69390137 -22.890625 78.96484375 C-22.79587891 78.16361084 -22.70113281 77.36237793 -22.60351562 76.53686523 C-22.48685547 75.67907471 -22.37019531 74.82128418 -22.25 73.9375 C-22.03267811 72.13586863 -21.81922079 70.33376744 -21.609375 68.53125 C-21.50173828 67.61472656 -21.39410156 66.69820313 -21.28320312 65.75390625 C-20.76691064 60.7334069 -20.58353865 55.69339295 -20.43066406 50.65014648 C-20.27851999 46.93415565 -20.11317038 45.16975556 -18 42 C-17.92094936 39.66800612 -17.91201231 37.33167378 -18 35 C-17.34 35 -16.68 35 -16 35 C-16.0309375 34.00613281 -16.061875 33.01226562 -16.09375 31.98828125 C-15.9978933 27.91037753 -15.35301168 24.15395624 -14.5 20.1875 C-13.36478348 14.61796501 -12.70620601 9.43275334 -12.9921875 3.72265625 C-12.99476562 3.15417969 -12.99734375 2.58570313 -13 2 C-11.44643726 0.44643726 -9.77383198 0.65655569 -7.625 0.4375 C-6.83351563 0.35371094 -6.04203125 0.26992187 -5.2265625 0.18359375 C-3 0 -3 0 0 0 Z " fill="#F9F9F9" transform="translate(70,151)"/>
<path d="M0 0 C0.66 0.33 1.32 0.66 2 1 C1.34 4.63 0.68 8.26 0 12 C0.66 11.34 1.32 10.68 2 10 C1.67 12.31 1.34 14.62 1 17 C0.505 15.515 0.505 15.515 0 14 C-0.66 14 -1.32 14 -2 14 C-1.95875 14.845625 -1.9175 15.69125 -1.875 16.5625 C-2 20 -2 20 -2.9140625 22.984375 C-4.73733687 29.08967947 -5.13829244 35.50566589 -5.85546875 41.81445312 C-5.97535156 42.80767578 -6.09523437 43.80089844 -6.21875 44.82421875 C-6.32123047 45.72229248 -6.42371094 46.62036621 -6.52929688 47.5456543 C-7 50 -7 50 -9 54 C-13.29 51.03 -17.58 48.06 -22 45 C-22 45.66 -22 46.32 -22 47 C-23.32 46.34 -24.64 45.68 -26 45 C-25.01 44.01 -24.02 43.02 -23 42 C-23.94875 41.9175 -24.8975 41.835 -25.875 41.75 C-29 41 -29 41 -30.375 38.9375 C-30.58125 38.298125 -30.7875 37.65875 -31 37 C-30.195625 36.71125 -29.39125 36.4225 -28.5625 36.125 C-25.8673532 35.26737432 -25.8673532 35.26737432 -25 33 C-24.7647268 30.89145964 -24.7647268 30.89145964 -24.75 28.5625 C-24.72421875 27.78003906 -24.6984375 26.99757812 -24.671875 26.19140625 C-24.83635753 23.93006907 -24.83635753 23.93006907 -26.3203125 22.203125 C-28.08044593 20.6755436 -28.08044593 20.6755436 -31.125 21.1875 C-32.07375 21.455625 -33.0225 21.72375 -34 22 C-35.32229189 24.64458379 -35.09677194 26.67761301 -35.0625 29.625 C-35.04896484 31.12933594 -35.04896484 31.12933594 -35.03515625 32.6640625 C-35.02355469 33.43492187 -35.01195312 34.20578125 -35 35 C-40.47932789 33.45454854 -45.11429181 30.84456788 -50 28 C-47.725306 25.44736912 -45.56797307 24.15855185 -42.4375 22.8125 C-41.65246094 22.46832031 -40.86742187 22.12414062 -40.05859375 21.76953125 C-38 21 -38 21 -36 21 C-36 20.34 -36 19.68 -36 19 C-36.66 18.67 -37.32 18.34 -38 18 C-36.35 17.34 -34.7 16.68 -33 16 C-33.66 17.32 -34.32 18.64 -35 20 C-34.154375 19.38125 -33.30875 18.7625 -32.4375 18.125 C-30.1974142 16.48591283 -28.57429982 15.89370586 -25.82421875 15.20703125 C-21.10594722 13.93684735 -17.38310637 11.27823992 -13.375 8.5625 C-11.90405825 7.58401515 -10.4327144 6.60613446 -8.9609375 5.62890625 C-7.93371582 4.94658936 -7.93371582 4.94658936 -6.88574219 4.25048828 C-2.18374401 1.13246204 -2.18374401 1.13246204 0 0 Z " fill="#040404" transform="translate(224,168)"/>
<path d="M0 0 C3.65573061 1.37007562 6.95467647 3.01017865 10.3125 5 C11.19550781 5.515625 12.07851562 6.03125 12.98828125 6.5625 C13.98408203 7.2740625 13.98408203 7.2740625 15 8 C15 8.66 15 9.32 15 10 C16.3303125 10.0928125 16.3303125 10.0928125 17.6875 10.1875 C21.79944481 11.19609024 23.11587313 12.97166678 26 16 C29.16645474 17.79320824 29.16645474 17.79320824 32 19 C28.71533863 22.67882073 25.33639092 24.75150101 21 27 C20.34 27 19.68 27 19 27 C19.165 26.505 19.33 26.01 19.5 25.5 C20.47867928 20.60660359 20.85238708 16.27858062 18 12 C15.02934491 12.34227572 15.02934491 12.34227572 12 13 C10.83016655 15.3396669 10.8338759 16.83391527 10.8125 19.4375 C10.79123047 20.61119141 10.79123047 20.61119141 10.76953125 21.80859375 C10.85913936 24.29205987 10.85913936 24.29205987 13 27 C15.05003955 28.19232613 15.05003955 28.19232613 17 29 C13.45960715 31.13902685 9.91750891 33.27519685 6.3737793 35.40869141 C5.16757304 36.13543921 3.96184231 36.86297686 2.7565918 37.59130859 C1.02777233 38.6358481 -0.70288259 39.67734787 -2.43359375 40.71875 C-3.47572021 41.34716797 -4.51784668 41.97558594 -5.59155273 42.62304688 C-8 44 -8 44 -9 44 C-8.59543055 35.22538407 -7.05770514 26.90303787 -4.98876953 18.38720703 C-4.49266649 16.3448088 -4.00903268 14.29974751 -3.52734375 12.25390625 C-1.1711611 2.34232219 -1.1711611 2.34232219 0 0 Z " fill="#020202" transform="translate(97,177)"/>
<path d="M0 0 C1.9375 1.4375 1.9375 1.4375 3 3 C2.2964412 8.51313293 -1.90712124 11.64968639 -6 15 C-19.12043939 24 -19.12043939 24 -23 24 C-22.37606749 19.99215115 -21.6949754 15.99610855 -21 12 C-20.79375 10.7315625 -20.5875 9.463125 -20.375 8.15625 C-20.148125 6.9084375 -19.92125 5.660625 -19.6875 4.375 C-19.48511719 3.20710937 -19.28273438 2.03921875 -19.07421875 0.8359375 C-18 -2 -18 -2 -15.609375 -3.41015625 C-9.80940414 -4.72122751 -4.98749271 -2.94715479 0 0 Z " fill="#030303" transform="translate(443,167)"/>
<path d="M0 0 C2.76906059 1.19977419 5.34577771 2.55224238 8 4 C8 7.71280847 7.84634282 9.93488972 5.50390625 12.8828125 C0.18583731 17.82636954 -3.61438821 19.04575528 -11 22 C-11 14.41 -11 6.82 -11 -1 C-7.45579176 -2.77210412 -3.65351527 -1.10589765 0 0 Z " fill="#010101" transform="translate(11,201)"/>
<path d="M0 0 C0.66 0.33 1.32 0.66 2 1 C-1.8671855 5.4912846 -5.80808672 9.80808672 -10 14 C-10.83376754 15.0621593 -11.6670568 16.12469413 -12.5 17.1875 C-19.64818134 25.5270449 -29.13903041 31.31936888 -38.625 36.625 C-39.40713867 37.06303955 -40.18927734 37.5010791 -40.99511719 37.95239258 C-46.60767649 41 -46.60767649 41 -50 41 C-49.11957031 40.26394531 -48.23914063 39.52789062 -47.33203125 38.76953125 C-46.15875156 37.78397631 -44.98558023 36.79829234 -43.8125 35.8125 C-43.23435547 35.32974609 -42.65621094 34.84699219 -42.06054688 34.34960938 C-38.53413296 31.38104625 -35.23994069 28.28470671 -32 25 C-30 23.33333333 -28 21.66666667 -26 20 C-25.24332031 19.21496094 -24.48664063 18.42992187 -23.70703125 17.62109375 C-20.87175387 14.87582517 -17.96092452 12.76177085 -14.6875 10.5625 C-9.68671672 7.17207828 -4.78655841 3.68752989 0 0 Z " fill="#F7F7F7" transform="translate(221,129)"/>
<path d="M0 0 C1.9507829 2.92617435 2.71513462 5.02044581 3.625 8.375 C3.88539063 9.31085938 4.14578125 10.24671875 4.4140625 11.2109375 C4.98474169 13.92737043 5.20565116 16.23566581 5 19 C3.12139167 21.5048111 2.03898126 21.98700625 -1 23 C-2.39439664 23.06665376 -3.79169875 23.08538199 -5.1875 23.0625 C-7.0746875 23.0315625 -7.0746875 23.0315625 -9 23 C-7.88195521 19.72674738 -6.75437425 16.45685918 -5.625 13.1875 C-5.30789063 12.25873047 -4.99078125 11.32996094 -4.6640625 10.37304688 C-4.3546875 9.48037109 -4.0453125 8.58769531 -3.7265625 7.66796875 C-3.44377441 6.84578857 -3.16098633 6.0236084 -2.86962891 5.17651367 C-2 3 -2 3 0 0 Z " fill="#010101" transform="translate(351,172)"/>
<path d="M0 0 C0.66 0.33 1.32 0.66 2 1 C1.01 2.485 1.01 2.485 0 4 C0.99 4.33 1.98 4.66 3 5 C2.50886719 5.37769531 2.01773438 5.75539062 1.51171875 6.14453125 C-0.57897883 8.71063292 -0.30262202 10.42570933 -0.1875 13.6875 C-0.16042969 14.68136719 -0.13335937 15.67523438 -0.10546875 16.69921875 C-0.07066406 17.45847656 -0.03585938 18.21773437 0 19 C-5.47932789 17.45454854 -10.11429181 14.84456788 -15 12 C-12.725306 9.44736912 -10.56797307 8.15855185 -7.4375 6.8125 C-6.65246094 6.46832031 -5.86742187 6.12414062 -5.05859375 5.76953125 C-3 5 -3 5 -1 5 C-1 4.34 -1 3.68 -1 3 C-1.66 2.67 -2.32 2.34 -3 2 C-2.01 1.34 -1.02 0.68 0 0 Z " fill="#0E0E0E" transform="translate(189,184)"/>
<path d="M0 0 C3.97383552 1.77385675 7.41471128 4.29197994 10.9375 6.8125 C11.54529297 7.23853516 12.15308594 7.66457031 12.77929688 8.10351562 C16.54429198 10.78815615 19.80080455 13.6375803 23 17 C23.66644531 17.66644531 24.33289063 18.33289063 25.01953125 19.01953125 C26.6796875 20.6796875 28.33984375 22.33984375 30 24 C29.34 24.33 28.68 24.66 28 25 C18.65064796 20.55318854 12.54314079 14.85176895 6 7 C5.0925 6.0925 4.185 5.185 3.25 4.25 C1 2 1 2 0 0 Z " fill="#F5F4F5" transform="translate(101,145)"/>
<path d="M0 0 C0 0.66 0 1.32 0 2 C-0.63164062 2.18433594 -1.26328125 2.36867187 -1.9140625 2.55859375 C-10.56219431 5.36238288 -17.5582286 9.91569487 -25 15 C-25 14.01 -25 13.02 -25 12 C-18.66432746 6.82852261 -8.39793109 0 0 0 Z " fill="#0A0A0A" transform="translate(26,164)"/>
<path d="M0 0 C0.66 0 1.32 0 2 0 C2.99 5.28 3.98 10.56 5 16 C1 14 1 14 -0.25 10.75 C-0.93049853 7.34750733 -1.24658047 4.4521266 -1 1 C-0.67 0.67 -0.34 0.34 0 0 Z " fill="#ECECEC" transform="translate(495,237)"/>
<path d="M0 0 C1.32 0.33 2.64 0.66 4 1 C3.71861942 3.29295236 3.4245814 5.58435456 3.125 7.875 C2.96257812 9.15117187 2.80015625 10.42734375 2.6328125 11.7421875 C2 15 2 15 0 17 C-0.66 16.34 -1.32 15.68 -2 15 C-1.67 14.67 -1.34 14.34 -1 14 C-1 12.00127494 -1.00264863 10.00242666 -1.03125 8.00390625 C-0.9979234 5.86683833 -0.62742944 4.03914568 0 2 C0 1.34 0 0.68 0 0 Z " fill="#FDFDFD" transform="translate(293,150)"/>
<path d="M0 0 C1.65 0.33 3.3 0.66 5 1 C3.86913662 4.39259014 2.79067537 5.33037102 0.125 7.625 C-0.57367188 8.23601562 -1.27234375 8.84703125 -1.9921875 9.4765625 C-4 11 -4 11 -7 12 C-5.44298069 7.32894208 -2.91552627 3.91294315 0 0 Z " fill="#252525" transform="translate(454,179)"/>
<path d="M0 0 C0 0.99 0 1.98 0 3 C-4.95 3 -9.9 3 -15 3 C-15 2.34 -15 1.68 -15 1 C-9.9752761 0.37470103 -5.07471573 -0.13012092 0 0 Z " fill="#080808" transform="translate(489,164)"/>
<path d="M0 0 C2 2 2 2 2.046875 5.00390625 C1.94890625 6.17824219 1.8509375 7.35257813 1.75 8.5625 C1.61851562 10.32787109 1.61851562 10.32787109 1.484375 12.12890625 C1.24460937 13.55009766 1.24460937 13.55009766 1 15 C0.01 15.495 0.01 15.495 -1 16 C-1.07347656 14.93458984 -1.07347656 14.93458984 -1.1484375 13.84765625 C-1.26058594 12.46900391 -1.26058594 12.46900391 -1.375 11.0625 C-1.44460938 10.14597656 -1.51421875 9.22945312 -1.5859375 8.28515625 C-1.72257812 7.53105469 -1.85921875 6.77695313 -2 6 C-2.66 5.67 -3.32 5.34 -4 5 C-3.01 4.34 -2.02 3.68 -1 3 C-0.67 2.01 -0.34 1.02 0 0 Z " fill="#565656" transform="translate(485,215)"/>
<path d="M0 0 C0.99 0.33 1.98 0.66 3 1 C3 4.63 3 8.26 3 12 C2.34 12 1.68 12 1 12 C0.855625 10.88625 0.71125 9.7725 0.5625 8.625 C0.21627965 5.17857953 0.21627965 5.17857953 -1 3 C-0.67 2.01 -0.34 1.02 0 0 Z " fill="#9E9E9E" transform="translate(250,150)"/>
<path d="M0 0 C-1.23263349 3.69790046 -2.20052451 3.9354846 -5.5625 5.6875 C-6.80193359 6.34298828 -6.80193359 6.34298828 -8.06640625 7.01171875 C-8.70449219 7.33785156 -9.34257812 7.66398438 -10 8 C-8.1771376 3.8284495 -4.90446377 0 0 0 Z " fill="#020202" transform="translate(10,171)"/>
<path d="M0 0 C0.66 0.33 1.32 0.66 2 1 C-1.12621626 4.39417765 -3.56541027 6.6062718 -8 8 C-5.33333333 5.33333333 -2.66666667 2.66666667 0 0 Z " fill="#E7E6E7" transform="translate(179,163)"/>
<path d="M0 0 C0.66 0 1.32 0 2 0 C1.67 2.64 1.34 5.28 1 8 C0.34 8 -0.32 8 -1 8 C-0.67 5.36 -0.34 2.72 0 0 Z " fill="#F6F6F6" transform="translate(407,173)"/>
</svg>
